<svg width="17" height="9" viewBox="0 0 17 9" fill="none" xmlns="http://www.w3.org/2000/svg">
<path d="M1.51174 0.451709C1.20893 0.169083 0.734334 0.185448 0.451709 0.488261C0.169083 0.791074 0.185448 1.26567 0.488261 1.54829L1.51174 0.451709ZM8.5 8L7.98826 8.54829C8.27642 8.81724 8.72358 8.81724 9.01174 8.54829L8.5 8ZM16.5117 1.54829C16.8146 1.26567 16.8309 0.791074 16.5483 0.488261C16.2657 0.185448 15.7911 0.169083 15.4883 0.451709L16.5117 1.54829ZM0.488261 1.54829L7.98826 8.54829L9.01174 7.45171L1.51174 0.451709L0.488261 1.54829ZM9.01174 8.54829L16.5117 1.54829L15.4883 0.451709L7.98826 7.45171L9.01174 8.54829Z" fill="black"/>
</svg>
